<svg width="50" height="50" viewBox="0 0 50 50" fill="none" xmlns="http://www.w3.org/2000/svg">
<path d="M25.4567 37.1618L26.1604 36.4513L25.4567 37.1618ZM15.6582 27.4577L14.9545 28.1683V28.1683L15.6582 27.4577ZM29.5433 37.1618L30.247 37.8723V37.8723L29.5433 37.1618ZM26.079 17.1374L26.7827 16.4269V16.4269L26.079 17.1374ZM39.3418 27.4577L38.6381 26.7472V26.7472L39.3418 27.4577ZM28.921 17.1374L29.6247 17.8479V17.8479L28.921 17.1374ZM27.5 18.5447L26.7963 19.2553C27.186 19.6412 27.8139 19.6412 28.2037 19.2553L27.5 18.5447ZM25.4567 37.1618L26.1604 36.4513L16.3619 26.7472L15.6582 27.4577L14.9545 28.1683L24.753 37.8723L25.4567 37.1618ZM29.5433 37.1618L28.8396 36.4513C28.1009 37.1829 26.8991 37.1829 26.1604 36.4513L25.4567 37.1618L24.753 37.8723C26.2712 39.3759 28.7288 39.3759 30.247 37.8723L29.5433 37.1618ZM15.6582 17.1374L16.3619 17.8479C18.8498 15.384 22.8874 15.384 25.3753 17.8479L26.079 17.1374L26.7827 16.4269C23.5153 13.191 18.2219 13.191 14.9545 16.4269L15.6582 17.1374ZM15.6582 17.1374L14.9545 16.4269C11.6818 19.6681 11.6818 24.9271 14.9545 28.1683L15.6582 27.4577L16.3619 26.7472C13.8794 24.2886 13.8794 20.3065 16.3619 17.8479L15.6582 17.1374ZM39.3418 27.4577L38.6381 26.7472L28.8396 36.4513L29.5433 37.1618L30.247 37.8723L40.0455 28.1683L39.3418 27.4577ZM39.3418 17.1374L38.6381 17.8479C41.1206 20.3065 41.1206 24.2886 38.6381 26.7472L39.3418 27.4577L40.0455 28.1683C43.3182 24.9271 43.3182 19.6681 40.0455 16.4269L39.3418 17.1374ZM28.921 17.1374L29.6247 17.8479C32.1126 15.384 36.1502 15.384 38.6381 17.8479L39.3418 17.1374L40.0455 16.4269C36.7781 13.191 31.4847 13.191 28.2173 16.4269L28.921 17.1374ZM27.5 18.5447L28.2037 19.2553L29.6247 17.8479L28.921 17.1374L28.2173 16.4269L26.7963 17.8342L27.5 18.5447ZM26.079 17.1374L25.3753 17.8479L26.7963 19.2553L27.5 18.5447L28.2037 17.8342L26.7827 16.4269L26.079 17.1374Z" fill="white"/>
</svg>
